# xmcd CD database file
#
# Track frame offsets:
#	150
#	25405
#	62437
#	102475
#	135122
#	156482
#	201512
#	228755
#	254302
#	287895
#	311392
#
# Disc length: 4598 seconds
#
# Revision: 0
# Processed by: cddbd v1.5PL3 Copyright (c) Steve Scherf et al.
# Submitted via: CDex 1.51
#
DISCID=9511f40b
DTITLE=Joshua Redman - Freedom in the groove
DYEAR=1900
DGENRE=Jazz
TTITLE0=hide and seek
TTITLE1=one shining soul
TTITLE2=streams of consciousness
TTITLE3=when the sun comes down
TTITLE4=home fries
TTITLE5=invocation
TTITLE6=dare I ask?
TTITLE7=cat battles
TTITLE8=pantomime
TTITLE9=can't dance
TTITLE10=strollin'
EXTD=
EXTT0=
EXTT1=
EXTT2=
EXTT3=
EXTT4=
EXTT5=
EXTT6=
EXTT7=
EXTT8=
EXTT9=
EXTT10=
PLAYORDER=
